<svg width="32" height="32" viewBox="0 0 1024 1024" fill="none" xmlns="http://www.w3.org/2000/svg">
<g clip-path="url(#clip0_0_1)">
<path d="M111.497 68.4858C106.811 63.7996 99.2125 63.7996 94.5263 68.4858L18.1587 144.853C13.4724 149.54 13.4724 157.138 18.1587 161.824C22.845 166.51 30.443 166.51 35.1293 161.824L103.012 93.9417L170.894 161.824C175.58 166.51 183.178 166.51 187.864 161.824C192.551 157.138 192.551 149.54 187.864 144.853L111.497 68.4858ZM91.0115 947.029C91.0115 953.656 96.3841 959.029 103.012 959.029C109.639 959.029 115.012 953.656 115.012 947.029H91.0115ZM91.0115 76.9711L91.0115 947.029H115.012L115.012 76.9711H91.0115Z"/>
<path d="M1008.49 955.485C1013.17 950.799 1013.17 943.201 1008.49 938.515L932.118 862.147C927.431 857.461 919.833 857.461 915.147 862.147C910.461 866.833 910.461 874.431 915.147 879.118L983.029 947L915.147 1014.88C910.461 1019.57 910.461 1027.17 915.147 1031.85C919.833 1036.54 927.431 1036.54 932.118 1031.85L1008.49 955.485ZM103 935C96.3726 935 91 940.373 91 947C91 953.627 96.3726 959 103 959V935ZM1000 935L103 935V959L1000 959V935Z"/>
<circle cx="303" cy="254" r="50"/>
<circle cx="303" cy="254" r="50"/>
<circle cx="303" cy="254" r="50"/>
<circle cx="303" cy="254" r="50"/>
<circle cx="501" cy="204" r="50"/>
<circle cx="501" cy="204" r="50"/>
<circle cx="501" cy="204" r="50" fill="white"/>
<circle cx="501" cy="204" r="50" fill="white"/>
<circle cx="417" cy="354" r="50" fill="white"/>
<circle cx="417" cy="354" r="50" fill="white"/>
<circle cx="417" cy="354" r="50" fill="white"/>
<circle cx="417" cy="354" r="50" fill="white"/>
<circle cx="276" cy="480" r="50" fill="white"/>
<circle cx="276" cy="480" r="50" fill="white"/>
<circle cx="276" cy="480" r="50" fill="white"/>
<circle cx="276" cy="480" r="50" fill="white"/>
<circle cx="353" cy="643" r="50" fill="white"/>
<circle cx="353" cy="643" r="50" fill="white"/>
<circle cx="353" cy="643" r="50" fill="white"/>
<circle cx="353" cy="643" r="50" fill="white"/>
<circle cx="467" cy="530" r="50" fill="white"/>
<circle cx="467" cy="530" r="50" fill="white"/>
<circle cx="467" cy="530" r="50" fill="white"/>
<circle cx="467" cy="530" r="50" fill="white"/>
<circle cx="190" cy="693" r="50" fill="white"/>
<circle cx="190" cy="693" r="50" fill="white"/>
<circle cx="190" cy="693" r="50" fill="white"/>
<circle cx="190" cy="693" r="50" fill="white"/>
<circle cx="739" cy="236" r="50" fill="white"/>
<circle cx="739" cy="236" r="50" fill="white"/>
<circle cx="739" cy="236" r="50" fill="white"/>
<circle cx="739" cy="236" r="50" fill="white"/>
<circle cx="727" cy="643" r="50" fill="white"/>
<circle cx="727" cy="643" r="50" fill="white"/>
<circle cx="727" cy="643" r="50" fill="white"/>
<circle cx="727" cy="643" r="50" fill="white"/>
<g filter="url(#filter0_d_0_1)">
<circle cx="551" cy="743" r="50" fill="black"/>
<circle cx="551" cy="743" r="50" fill="black"/>
<circle cx="551" cy="743" r="50"/>
<circle cx="551" cy="743" r="50" fill="white"/>
<circle cx="551" cy="743" r="50" fill="white"/>
<circle cx="551" cy="743" r="50" fill="white"/>
<circle cx="551" cy="743" r="57" stroke="black" stroke-width="14"/>
</g>
<g filter="url(#filter1_d_0_1)">
<circle cx="777" cy="793" r="50"/>
<circle cx="777" cy="793" r="50"/>
<circle cx="777" cy="793" r="50"/>
<circle cx="777" cy="793" r="50" fill="white"/>
<circle cx="777" cy="793" r="50" fill="white"/>
<circle cx="777" cy="793" r="50" fill="white"/>
<circle cx="777" cy="793" r="57" stroke="black" stroke-width="14"/>
</g>
<g filter="url(#filter2_d_0_1)">
<circle cx="353" cy="843" r="50"/>
<circle cx="353" cy="843" r="50"/>
<circle cx="353" cy="843" r="50"/>
<circle cx="353" cy="843" r="50" fill="white"/>
<circle cx="353" cy="843" r="50" fill="white"/>
<circle cx="353" cy="843" r="50" fill="white"/>
<circle cx="353" cy="843" r="57" stroke="black" stroke-width="14"/>
</g>
<g filter="url(#filter3_d_0_1)">
<circle cx="618" cy="354" r="50"/>
<circle cx="618" cy="354" r="50"/>
<circle cx="618" cy="354" r="50"/>
<circle cx="618" cy="354" r="50" fill="white"/>
<circle cx="618" cy="354" r="50" fill="white"/>
<circle cx="618" cy="354" r="50" fill="white"/>
<circle cx="618" cy="354" r="57" stroke="black" stroke-width="14"/>
</g>
<g filter="url(#filter4_d_0_1)">
<circle cx="618" cy="530" r="50"/>
<circle cx="618" cy="530" r="50"/>
<circle cx="618" cy="530" r="50"/>
<circle cx="618" cy="530" r="50" fill="white"/>
<circle cx="618" cy="530" r="50" fill="white"/>
<circle cx="618" cy="530" r="50" fill="white"/>
<circle cx="618" cy="530" r="57" stroke="black" stroke-width="14"/>
</g>
<g filter="url(#filter5_d_0_1)">
<circle cx="777" cy="454" r="50"/>
<circle cx="777" cy="454" r="50"/>
<circle cx="777" cy="454" r="50"/>
<circle cx="777" cy="454" r="50" fill="white"/>
<circle cx="777" cy="454" r="50" fill="white"/>
<circle cx="777" cy="454" r="50" fill="white"/>
<circle cx="777" cy="454" r="57" stroke="black" stroke-width="14"/>
</g>
<g filter="url(#filter6_d_0_1)">
<circle cx="908" cy="580" r="50"/>
<circle cx="908" cy="580" r="50"/>
<circle cx="908" cy="580" r="50"/>
<circle cx="908" cy="580" r="50" fill="white"/>
<circle cx="908" cy="580" r="50" fill="white"/>
<circle cx="908" cy="580" r="50" fill="white"/>
<circle cx="908" cy="580" r="57" stroke="black" stroke-width="14"/>
</g>
<g filter="url(#filter7_d_0_1)">
<circle cx="958" cy="404" r="50"/>
<circle cx="958" cy="404" r="50"/>
<circle cx="958" cy="404" r="50"/>
<circle cx="958" cy="404" r="50" fill="white"/>
<circle cx="958" cy="404" r="50" fill="white"/>
<circle cx="958" cy="404" r="50" fill="white"/>
<circle cx="958" cy="404" r="57" stroke="black" stroke-width="14"/>
</g>
<line x1="149.025" y1="906.834" x2="939.025" y2="137.834" stroke="black" stroke-width="20"/>
</g>
<defs>
<filter id="filter0_d_0_1" x="483" y="679" width="136" height="136" filterUnits="userSpaceOnUse" color-interpolation-filters="sRGB">
<feFlood flood-opacity="0" result="BackgroundImageFix"/>
<feColorMatrix in="SourceAlpha" type="matrix" values="0 0 0 0 0 0 0 0 0 0 0 0 0 0 0 0 0 0 127 0" result="hardAlpha"/>
<feOffset dy="4"/>
<feGaussianBlur stdDeviation="2"/>
<feComposite in2="hardAlpha" operator="out"/>
<feColorMatrix type="matrix" values="0 0 0 0 0 0 0 0 0 0 0 0 0 0 0 0 0 0 0.25 0"/>
<feBlend mode="normal" in2="BackgroundImageFix" result="effect1_dropShadow_0_1"/>
<feBlend mode="normal" in="SourceGraphic" in2="effect1_dropShadow_0_1" result="shape"/>
</filter>
<filter id="filter1_d_0_1" x="709" y="729" width="136" height="136" filterUnits="userSpaceOnUse" color-interpolation-filters="sRGB">
<feFlood flood-opacity="0" result="BackgroundImageFix"/>
<feColorMatrix in="SourceAlpha" type="matrix" values="0 0 0 0 0 0 0 0 0 0 0 0 0 0 0 0 0 0 127 0" result="hardAlpha"/>
<feOffset dy="4"/>
<feGaussianBlur stdDeviation="2"/>
<feComposite in2="hardAlpha" operator="out"/>
<feColorMatrix type="matrix" values="0 0 0 0 0 0 0 0 0 0 0 0 0 0 0 0 0 0 0.25 0"/>
<feBlend mode="normal" in2="BackgroundImageFix" result="effect1_dropShadow_0_1"/>
<feBlend mode="normal" in="SourceGraphic" in2="effect1_dropShadow_0_1" result="shape"/>
</filter>
<filter id="filter2_d_0_1" x="285" y="779" width="136" height="136" filterUnits="userSpaceOnUse" color-interpolation-filters="sRGB">
<feFlood flood-opacity="0" result="BackgroundImageFix"/>
<feColorMatrix in="SourceAlpha" type="matrix" values="0 0 0 0 0 0 0 0 0 0 0 0 0 0 0 0 0 0 127 0" result="hardAlpha"/>
<feOffset dy="4"/>
<feGaussianBlur stdDeviation="2"/>
<feComposite in2="hardAlpha" operator="out"/>
<feColorMatrix type="matrix" values="0 0 0 0 0 0 0 0 0 0 0 0 0 0 0 0 0 0 0.25 0"/>
<feBlend mode="normal" in2="BackgroundImageFix" result="effect1_dropShadow_0_1"/>
<feBlend mode="normal" in="SourceGraphic" in2="effect1_dropShadow_0_1" result="shape"/>
</filter>
<filter id="filter3_d_0_1" x="550" y="290" width="136" height="136" filterUnits="userSpaceOnUse" color-interpolation-filters="sRGB">
<feFlood flood-opacity="0" result="BackgroundImageFix"/>
<feColorMatrix in="SourceAlpha" type="matrix" values="0 0 0 0 0 0 0 0 0 0 0 0 0 0 0 0 0 0 127 0" result="hardAlpha"/>
<feOffset dy="4"/>
<feGaussianBlur stdDeviation="2"/>
<feComposite in2="hardAlpha" operator="out"/>
<feColorMatrix type="matrix" values="0 0 0 0 0 0 0 0 0 0 0 0 0 0 0 0 0 0 0.25 0"/>
<feBlend mode="normal" in2="BackgroundImageFix" result="effect1_dropShadow_0_1"/>
<feBlend mode="normal" in="SourceGraphic" in2="effect1_dropShadow_0_1" result="shape"/>
</filter>
<filter id="filter4_d_0_1" x="550" y="466" width="136" height="136" filterUnits="userSpaceOnUse" color-interpolation-filters="sRGB">
<feFlood flood-opacity="0" result="BackgroundImageFix"/>
<feColorMatrix in="SourceAlpha" type="matrix" values="0 0 0 0 0 0 0 0 0 0 0 0 0 0 0 0 0 0 127 0" result="hardAlpha"/>
<feOffset dy="4"/>
<feGaussianBlur stdDeviation="2"/>
<feComposite in2="hardAlpha" operator="out"/>
<feColorMatrix type="matrix" values="0 0 0 0 0 0 0 0 0 0 0 0 0 0 0 0 0 0 0.25 0"/>
<feBlend mode="normal" in2="BackgroundImageFix" result="effect1_dropShadow_0_1"/>
<feBlend mode="normal" in="SourceGraphic" in2="effect1_dropShadow_0_1" result="shape"/>
</filter>
<filter id="filter5_d_0_1" x="709" y="390" width="136" height="136" filterUnits="userSpaceOnUse" color-interpolation-filters="sRGB">
<feFlood flood-opacity="0" result="BackgroundImageFix"/>
<feColorMatrix in="SourceAlpha" type="matrix" values="0 0 0 0 0 0 0 0 0 0 0 0 0 0 0 0 0 0 127 0" result="hardAlpha"/>
<feOffset dy="4"/>
<feGaussianBlur stdDeviation="2"/>
<feComposite in2="hardAlpha" operator="out"/>
<feColorMatrix type="matrix" values="0 0 0 0 0 0 0 0 0 0 0 0 0 0 0 0 0 0 0.25 0"/>
<feBlend mode="normal" in2="BackgroundImageFix" result="effect1_dropShadow_0_1"/>
<feBlend mode="normal" in="SourceGraphic" in2="effect1_dropShadow_0_1" result="shape"/>
</filter>
<filter id="filter6_d_0_1" x="840" y="516" width="136" height="136" filterUnits="userSpaceOnUse" color-interpolation-filters="sRGB">
<feFlood flood-opacity="0" result="BackgroundImageFix"/>
<feColorMatrix in="SourceAlpha" type="matrix" values="0 0 0 0 0 0 0 0 0 0 0 0 0 0 0 0 0 0 127 0" result="hardAlpha"/>
<feOffset dy="4"/>
<feGaussianBlur stdDeviation="2"/>
<feComposite in2="hardAlpha" operator="out"/>
<feColorMatrix type="matrix" values="0 0 0 0 0 0 0 0 0 0 0 0 0 0 0 0 0 0 0.25 0"/>
<feBlend mode="normal" in2="BackgroundImageFix" result="effect1_dropShadow_0_1"/>
<feBlend mode="normal" in="SourceGraphic" in2="effect1_dropShadow_0_1" result="shape"/>
</filter>
<filter id="filter7_d_0_1" x="890" y="340" width="136" height="136" filterUnits="userSpaceOnUse" color-interpolation-filters="sRGB">
<feFlood flood-opacity="0" result="BackgroundImageFix"/>
<feColorMatrix in="SourceAlpha" type="matrix" values="0 0 0 0 0 0 0 0 0 0 0 0 0 0 0 0 0 0 127 0" result="hardAlpha"/>
<feOffset dy="4"/>
<feGaussianBlur stdDeviation="2"/>
<feComposite in2="hardAlpha" operator="out"/>
<feColorMatrix type="matrix" values="0 0 0 0 0 0 0 0 0 0 0 0 0 0 0 0 0 0 0.25 0"/>
<feBlend mode="normal" in2="BackgroundImageFix" result="effect1_dropShadow_0_1"/>
<feBlend mode="normal" in="SourceGraphic" in2="effect1_dropShadow_0_1" result="shape"/>
</filter>
<clipPath id="clip0_0_1">
<rect width="1024" height="1024" fill="white"/>
</clipPath>
</defs>
</svg>
