<?xml version="1.0" standalone="no"?>
<!DOCTYPE svg PUBLIC "-//W3C//DTD SVG 20010904//EN"
 "http://www.w3.org/TR/2001/REC-SVG-20010904/DTD/svg10.dtd">
<svg version="1.0" xmlns="http://www.w3.org/2000/svg"
 width="32" height="32" viewBox="0 0 64 64"
 preserveAspectRatio="xMidYMid meet">

<g transform="translate(0.000000,64.000000) scale(0.100000,-0.100000)"
fill="#000000" stroke="none">
<path d="M45 588 c-3 -7 -4 -132 -3 -278 l3 -265 269 -3 c153 -1 274 2 279 7
5 5 -9 31 -36 64 -54 66 -74 119 -117 300 -28 120 -36 140 -62 162 -38 32 -78
32 -116 0 -26 -22 -34 -42 -62 -162 -35 -150 -47 -185 -88 -253 l-27 -45 -5
239 c-4 179 -8 240 -17 244 -7 2 -15 -2 -18 -10z m255 -273 c0 -228 -1 -235
-20 -235 -19 0 -20 7 -20 209 0 200 7 261 30 261 6 0 10 -81 10 -235z m70 209
c6 -14 10 -120 10 -235 0 -202 -1 -209 -20 -209 -19 0 -20 7 -20 235 0 230 6
273 30 209z m-150 -329 c0 -108 -1 -115 -20 -115 -18 0 -20 7 -20 55 0 45 28
175 38 175 1 0 2 -52 2 -115z m240 -57 c0 -51 -2 -58 -20 -58 -19 0 -20 6 -19
118 l0 117 19 -60 c11 -33 20 -86 20 -117z m-320 -38 c0 -11 -7 -20 -15 -20
-13 0 -13 3 -3 20 7 11 14 20 15 20 2 0 3 -9 3 -20z m379 -2 c12 -15 11 -18
-3 -18 -10 0 -16 8 -16 22 0 12 1 19 3 17 1 -2 9 -12 16 -21z"/>
</g>
</svg>
